<svg width="14" height="13" viewBox="0 0 14 13" fill="none" xmlns="http://www.w3.org/2000/svg">
<path d="M13.3262 12.971H10.5832C10.5744 12.8428 10.5597 12.7219 10.5597 12.6009C10.5597 11.3048 10.5597 10.0202 10.5421 8.7298C10.545 8.32763 10.5101 7.92606 10.4378 7.53017C10.291 6.83603 9.89159 6.52208 9.1897 6.48319C8.45551 6.43999 7.86817 6.77122 7.66259 7.39912C7.55642 7.72536 7.49856 8.06485 7.49078 8.40722C7.47169 9.78831 7.48051 11.1708 7.47904 12.5534V12.9854C6.55836 13.0056 5.66264 13.0041 4.73755 12.9854V4.36907C4.98864 4.29563 6.76099 4.27258 7.33953 4.34171C7.35128 4.66862 7.36303 5.00417 7.37624 5.39877C7.46875 5.30516 7.52308 5.25476 7.573 5.20147C7.80513 4.90219 8.09723 4.65263 8.43131 4.46812C8.76539 4.28362 9.13441 4.16807 9.5157 4.12857C10.2287 4.02149 10.958 4.10816 11.6243 4.37916C12.1179 4.57845 12.5254 4.93994 12.777 5.40165C13.0502 5.90074 13.2123 6.45098 13.2527 7.01604C13.2924 7.47401 13.3159 7.93485 13.3188 8.39569C13.3291 9.78974 13.3188 11.1824 13.3188 12.5721L13.3262 12.971Z" fill="white"/>
<path d="M2.9592 12.971H0.244141V4.3374H2.91955C2.92717 4.34277 2.93408 4.34906 2.94011 4.35612C2.94892 4.36477 2.9592 4.37341 2.96066 4.38349C2.97182 4.42788 2.9787 4.47321 2.98122 4.51886C2.98122 7.282 2.98122 10.0456 2.98122 12.8097C2.97807 12.864 2.9707 12.9179 2.9592 12.971Z" fill="white"/>
<path d="M1.56857 3.13056C1.35629 3.1306 1.14621 3.08838 0.951063 3.00644C0.755916 2.92451 0.579763 2.80457 0.433273 2.6539C0.286782 2.50322 0.173001 2.32495 0.0988336 2.12988C0.0246657 1.93481 -0.00834757 1.727 0.00178925 1.51904C0.00379434 1.3139 0.0477367 1.11124 0.131026 0.92305C0.214316 0.734861 0.33526 0.564969 0.486688 0.423437C0.638117 0.281905 0.81695 0.171609 1.01262 0.0990722C1.20828 0.0265357 1.4168 -0.00676767 1.62582 0.00113967C1.83797 0.00134445 2.04789 0.0436066 2.24297 0.125385C2.43804 0.207163 2.61426 0.326772 2.76101 0.477024C2.90776 0.627276 3.02203 0.80507 3.09695 0.999728C3.17188 1.19439 3.20592 1.40189 3.19701 1.60977C3.19206 1.81454 3.14599 2.01635 3.06145 2.20364C2.9769 2.39094 2.85553 2.56004 2.70428 2.70129C2.55303 2.84254 2.37488 2.95316 2.18 3.02682C1.98512 3.10047 1.77735 3.13572 1.56857 3.13056Z" fill="white"/>
</svg>
