<svg width="293" height="33" viewBox="0 0 293 33" fill="none" xmlns="http://www.w3.org/2000/svg">
<g clip-path="url(#clip0_26_314)">
<path d="M197.021 20.8416C196.873 20.8416 196.737 20.9027 196.636 21.0112C196.142 21.5607 195.439 21.8863 194.682 21.8863H191.206C189.55 21.8863 187.96 22.524 186.723 23.6299C185.614 24.6203 183.755 25.6583 180.854 25.6583C180.705 25.6583 180.563 25.6583 180.414 25.6447V25.6651C175.877 25.3801 172.286 21.6014 172.286 16.9747C172.286 12.3479 175.897 8.54884 180.448 8.28426C182.51 8.30461 184.498 9.05086 186.06 10.4009C187.291 11.466 188.853 12.0494 190.449 12.0494H193.404L192.991 11.1607C190.726 6.26939 185.797 3.10122 180.421 3.08087C180.421 4.32914 179.413 5.34675 178.162 5.34675H174.024C172.773 5.34675 171.752 6.36437 171.752 7.62621V10.869C171.752 12.1037 170.751 13.1077 169.521 13.1077H168.189C166.951 13.1077 165.95 14.1118 165.95 15.3533V18.5825C165.95 19.8376 166.965 20.8619 168.222 20.8619H169.521C170.751 20.8619 171.752 21.866 171.752 23.1007V26.3435C171.752 27.5985 172.766 28.6229 174.024 28.6229H178.9C179.968 28.6229 180.833 29.4913 180.833 30.5632C180.982 30.5632 180.718 30.57 180.86 30.57C185.222 30.57 189.293 28.4737 191.862 25.0477C192.903 23.6638 194.52 22.8429 196.244 22.8429H197.833C199.537 22.8429 201.112 22.0967 202.194 20.8552H197.021V20.8416Z" fill="white"/>
<path d="M197.021 15.7264C197.021 13.7048 198.556 12.1783 200.598 12.1783C202.296 12.1783 203.661 13.257 204.04 14.7834H203.222C202.85 13.6912 201.842 12.9246 200.598 12.9246C199.009 12.9246 197.819 14.1322 197.819 15.7264C197.819 17.3207 199.009 18.5282 200.598 18.5282C201.842 18.5282 202.85 17.7549 203.222 16.6694H204.04C203.655 18.1958 202.289 19.2745 200.598 19.2745C198.556 19.2745 197.021 17.7481 197.021 15.7264Z" fill="white"/>
<path d="M208.814 12.2259V13.0264C207.353 13.0264 206.427 14.0372 206.427 15.5908V19.1117H205.656V12.3344H206.427V13.7998C206.894 12.8161 207.739 12.2326 208.814 12.2326V12.2259Z" fill="white"/>
<path d="M210.133 10.1838C210.133 9.87856 210.383 9.64111 210.687 9.64111C210.992 9.64111 211.255 9.87856 211.255 10.1838C211.255 10.4891 211.005 10.7401 210.687 10.7401C210.369 10.7401 210.133 10.5027 210.133 10.1838ZM210.302 12.3344H211.073V19.1117H210.302V12.3344Z" fill="white"/>
<path d="M220.309 15.7264C220.309 17.7481 218.842 19.2745 216.867 19.2745C215.556 19.2745 214.494 18.569 213.953 17.4835V21.6421H213.182V12.3344H213.953V13.9693C214.494 12.8771 215.556 12.1783 216.867 12.1783C218.842 12.1783 220.309 13.7048 220.309 15.7264ZM219.511 15.7264C219.511 14.1322 218.321 12.9246 216.732 12.9246C215.143 12.9246 213.953 14.1322 213.953 15.7264C213.953 17.3207 215.143 18.5282 216.732 18.5282C218.321 18.5282 219.511 17.3207 219.511 15.7264Z" fill="white"/>
<path d="M223.055 13.0399V18.3994H225.083V19.1185H222.291V13.0399H220.911V12.3344H222.291V10.3399H223.061V12.3344H225.09V13.0399H223.061H223.055Z" fill="white"/>
<path d="M225.753 15.7264C225.753 13.7048 227.288 12.1783 229.33 12.1783C231.372 12.1783 232.894 13.7048 232.894 15.7264C232.894 17.7481 231.359 19.2745 229.33 19.2745C227.301 19.2745 225.753 17.7481 225.753 15.7264ZM232.096 15.7264C232.096 14.1322 230.919 12.9246 229.33 12.9246C227.741 12.9246 226.551 14.1322 226.551 15.7264C226.551 17.3207 227.741 18.5282 229.33 18.5282C230.919 18.5282 232.096 17.3207 232.096 15.7264Z" fill="white"/>
<path d="M245.173 14.702V19.1117H243.449V15.2176C243.449 14.3967 242.935 13.8472 242.123 13.8472C241.278 13.8472 240.703 14.4035 240.703 15.2448V19.1117H238.979V15.2176C238.979 14.3967 238.452 13.8472 237.654 13.8472C236.808 13.8472 236.22 14.4035 236.22 15.2448V19.1117H234.496V12.3344H236.22V13.1213C236.714 12.4972 237.397 12.1783 238.222 12.1783C239.229 12.1783 240 12.6329 240.392 13.3995C240.906 12.599 241.691 12.1783 242.685 12.1783C244.165 12.1783 245.159 13.1756 245.159 14.702H245.173Z" fill="white"/>
<path d="M252.834 17.5446V19.1117H250.528V18.4197C250.089 18.9489 249.413 19.2677 248.594 19.2677C247.228 19.2677 246.194 18.2976 246.194 17.0357C246.194 15.7739 247.228 14.8174 248.594 14.8174H250.332V13.9422H246.674V12.3344H252.05V17.5446H252.834ZM250.332 16.934V16.147H248.993C248.412 16.147 247.972 16.5202 247.972 17.0086C247.972 17.4971 248.412 17.8838 248.993 17.8838C249.791 17.8838 250.332 17.4971 250.332 16.9272V16.934Z" fill="white"/>
<path d="M260.306 14.8038V19.1117H258.582V15.3601C258.582 14.4442 258 13.8472 257.115 13.8472C256.161 13.8472 255.526 14.4578 255.526 15.3872V19.1117H253.801V12.3344H255.526V13.1688C256.039 12.5175 256.783 12.1715 257.669 12.1715C259.258 12.1715 260.306 13.2095 260.306 14.8038Z" fill="white"/>
<path d="M263.045 9.6886H265.215L263.518 11.5881H261.706L263.045 9.6886ZM261.841 12.3344H263.566V19.1117H261.841V12.3344Z" fill="white"/>
<path d="M271.368 17.5446V19.1117H269.063V18.4197C268.623 18.9489 267.947 19.2677 267.129 19.2677C265.763 19.2677 264.728 18.2976 264.728 17.0357C264.728 15.7739 265.763 14.8174 267.129 14.8174H268.867V13.9422H265.208V12.3344H270.584V17.5446H271.368ZM268.867 16.934V16.147H267.528C266.946 16.147 266.507 16.5202 266.507 17.0086C266.507 17.4971 266.946 17.8838 267.528 17.8838C268.326 17.8838 268.867 17.4971 268.867 16.9272V16.934Z" fill="white"/>
<path d="M271.923 15.7264C271.923 13.7048 273.485 12.1783 275.554 12.1783C277.366 12.1783 278.786 13.3452 279.104 14.9802H277.279C277.001 14.3018 276.352 13.8472 275.554 13.8472C274.493 13.8472 273.701 14.6613 273.701 15.7196C273.701 16.778 274.499 17.592 275.554 17.592C276.352 17.592 277.001 17.1375 277.279 16.4591H279.104C278.786 18.0941 277.366 19.2609 275.554 19.2609C273.485 19.2609 271.923 17.7345 271.923 15.7129V15.7264Z" fill="white"/>
<path d="M279.882 15.7264C279.882 13.7048 281.444 12.1783 283.513 12.1783C285.582 12.1783 287.144 13.7048 287.144 15.7264C287.144 17.7481 285.582 19.2745 283.513 19.2745C281.444 19.2745 279.882 17.7481 279.882 15.7264ZM285.366 15.7264C285.366 14.6613 284.582 13.854 283.513 13.854C282.445 13.854 281.66 14.6681 281.66 15.7264C281.66 16.7847 282.458 17.5988 283.513 17.5988C284.568 17.5988 285.366 16.7847 285.366 15.7264Z" fill="white"/>
<path d="M287.956 17.0765H289.694C289.694 17.5038 290.052 17.8498 290.505 17.8498C290.931 17.8498 291.262 17.5853 291.262 17.2393C291.262 16.7712 290.748 16.5473 290.133 16.3913C289.126 16.1538 288.05 15.6314 288.05 14.2678C288.05 12.9042 289.18 12.1783 290.478 12.1783C291.871 12.1783 292.912 13.1078 292.912 14.2678H291.174C291.174 13.9083 290.87 13.603 290.458 13.603C290.086 13.603 289.782 13.854 289.782 14.1593C289.782 14.5867 290.262 14.8377 290.958 15.0073C292.006 15.2719 293 15.7943 293 17.0968C293 18.4808 291.864 19.2745 290.485 19.2745C289.024 19.2745 287.956 18.2908 287.956 17.0832V17.0765Z" fill="white"/>
</g>
<path d="M14.8021 10.25H23.3677V4.2254H8.86011V18.9345H14.8021V10.25Z" fill="white"/>
<path d="M23.3677 13.2646H17.4257V21.7858H5.94204V4.2254H0V27.535V27.8103H20.3576V30.5496H26.2996V24.5251H23.3677V13.2646Z" fill="white"/>
<path d="M53.3081 14.9025C53.3081 13.7514 52.9843 12.9145 52.3369 12.3919C51.6895 11.8692 50.6063 11.6094 49.0874 11.6125H45.3777V21.529H47.5593V18.3651H49.069L51.2415 21.529H53.9248L51.4486 17.9824C52.7051 17.5204 53.3081 16.4938 53.3081 14.9025ZM50.68 16.0831C50.2281 16.3778 49.6908 16.5079 49.1565 16.4518H47.5593V13.5165H49.1979C49.7048 13.4731 50.2136 13.575 50.6661 13.8105C50.8193 13.9454 50.9376 14.1164 51.0106 14.3084C51.0836 14.5003 51.1092 14.7075 51.085 14.9118C51.1037 15.125 51.0772 15.3399 51.0073 15.5419C50.9375 15.7439 50.8259 15.9284 50.68 16.0831Z" fill="white"/>
<path d="M65.2837 13.5023C65.7833 13.4992 66.2766 13.6155 66.7236 13.8417C67.1706 14.0679 67.5587 14.3977 67.8566 14.8043L69.2374 13.2457C68.7451 12.6507 68.1281 12.1745 67.4315 11.8516C66.7348 11.5287 65.976 11.3673 65.2101 11.379C64.5359 11.3638 63.8656 11.4866 63.2393 11.7399C62.6129 11.9933 62.0434 12.3721 61.5647 12.8537C60.6146 13.8288 60.0794 15.1428 60.0743 16.5136C60.0691 17.8843 60.5943 19.2024 61.5371 20.1849C62.0607 20.6809 62.6784 21.0636 63.3526 21.3097C64.0267 21.5559 64.7433 21.6603 65.4585 21.6166C66.1738 21.573 66.8728 21.3822 67.5129 21.0558C68.1531 20.7294 68.7211 20.2743 69.1822 19.7182L67.8014 18.2576C67.4938 18.6675 67.0949 18.9979 66.6374 19.2217C66.1798 19.4456 65.6765 19.5565 65.1686 19.5456C64.7969 19.5529 64.4277 19.4825 64.0841 19.3388C63.7404 19.1951 63.4296 18.9811 63.1711 18.7102C62.8913 18.4167 62.6739 18.0682 62.5322 17.6861C62.3905 17.3041 62.3275 16.8966 62.3472 16.4889C62.3284 16.0804 62.3968 15.6725 62.5477 15.2931C62.6986 14.9138 62.9285 14.572 63.2217 14.291C63.7855 13.7725 64.5226 13.4906 65.2837 13.5023Z" fill="white"/>
<path d="M74.4618 11.6125L70.2366 21.529H72.5379L73.4584 19.3871H77.5594L78.4799 21.529H80.7813L76.5606 11.6125H74.4618ZM74.2915 17.4411L75.525 14.5618L76.7401 17.4411H74.2915Z" fill="white"/>
<path d="M86.0835 11.6125H82.6223V21.529H84.804V18.7571H86.1065C87.5518 18.7571 88.6257 18.474 89.3284 17.9077C90.0311 17.3415 90.3824 16.4455 90.3824 15.2198C90.3824 13.9925 90.0418 13.0872 89.356 12.4945C88.6702 11.9018 87.5886 11.6125 86.0835 11.6125ZM87.7635 16.4238C87.5011 16.7224 87.0087 16.8904 86.2814 16.8904H84.8132V13.5585H86.0559C86.6086 13.5162 87.1613 13.6412 87.6438 13.9178C87.8215 14.0624 87.9611 14.2492 88.0502 14.4617C88.1393 14.6742 88.1752 14.9058 88.1547 15.1358C88.1835 15.5991 88.0444 16.0572 87.7635 16.4238Z" fill="white"/>
<path d="M94.9805 11.6125H92.7988V21.5244H94.9805V11.6125Z" fill="white"/>
<path d="M97.2727 13.5258H100.044V21.5244H102.225V13.5258H104.996V11.6125H97.2727V13.5258Z" fill="white"/>
<path d="M109.529 11.6125L105.304 21.529H107.628L108.549 19.3871H112.65L113.57 21.529H115.895L111.669 11.6125H109.529ZM109.364 17.4411L110.592 14.5618L111.812 17.4411H109.364Z" fill="white"/>
<path d="M119.881 19.555V11.6125H117.699V21.5244H124.046V19.555H119.881Z" fill="white"/>
<path d="M42.8187 16.5079C42.8353 15.8279 42.7121 15.1518 42.457 14.5227C42.2018 13.8937 41.8203 13.3253 41.3366 12.8539C40.347 11.913 39.0411 11.3893 37.6844 11.3893C36.3277 11.3893 35.0218 11.913 34.0322 12.8539C33.083 13.8256 32.5505 15.1379 32.5505 16.5055C32.5505 17.8731 33.083 19.1854 34.0322 20.1571C34.5119 20.6382 35.0824 21.0163 35.7095 21.2689C36.3366 21.5215 37.0075 21.6433 37.6821 21.6271C38.2879 21.6304 38.8899 21.5311 39.4633 21.3331L40.1077 22.2664H42.7911L41.3228 20.1665C41.8104 19.6965 42.1955 19.1281 42.4531 18.4979C42.7108 17.8677 42.8353 17.1898 42.8187 16.5079ZM35.6293 18.7572C35.087 18.1333 34.7877 17.3302 34.7877 16.4985C34.7877 15.6669 35.087 14.8638 35.6293 14.2399C35.8885 13.942 36.2072 13.7034 36.5643 13.5399C36.9214 13.3765 37.3087 13.2919 37.7005 13.2919C38.0923 13.2919 38.4796 13.3765 38.8367 13.5399C39.1938 13.7034 39.5125 13.942 39.7717 14.2399C40.3141 14.8638 40.6133 15.6669 40.6133 16.4985C40.6133 17.3302 40.3141 18.1333 39.7717 18.7572C39.5125 19.0551 39.1938 19.2937 38.8367 19.4571C38.4796 19.6206 38.0923 19.7051 37.7005 19.7051C37.3087 19.7051 36.9214 19.6206 36.5643 19.4571C36.2072 19.2937 35.8885 19.0551 35.6293 18.7572Z" fill="white"/>
<line x1="146.724" y1="0.791809" x2="146.724" y2="32.1966" stroke="white" stroke-width="0.44864"/>
<defs>
<clipPath id="clip0_26_314">
<rect width="127.043" height="27.4688" fill="white" transform="translate(165.957 3.08087)"/>
</clipPath>
</defs>
</svg>
